<svg id="Logo" xmlns="http://www.w3.org/2000/svg" xmlns:xlink="http://www.w3.org/1999/xlink" width="122" height="29.754" viewBox="0 0 122 29.754">
  <defs>
    <linearGradient id="linear-gradient" y1="0.5" x2="1" y2="0.5" gradientUnits="objectBoundingBox">
      <stop offset="0" stop-color="#f33"/>
      <stop offset="0.13" stop-color="#f33"/>
      <stop offset="1" stop-color="#f33"/>
    </linearGradient>
  </defs>
  <g id="Layer_1" data-name="Layer 1" transform="translate(0)">
    <circle id="Ellipse_1" data-name="Ellipse 1" cx="14.877" cy="14.877" r="14.877" transform="translate(92.246)" fill="url(#linear-gradient)"/>
    <path id="Path_1" data-name="Path 1" d="M1105.983,104.32a1.633,1.633,0,0,0-1.633,1.63V118a1.633,1.633,0,1,0,3.266,0V105.95A1.633,1.633,0,0,0,1105.983,104.32Z" transform="translate(-1024.98 -96.823)" fill="#222747"/>
    <path id="Path_2" data-name="Path 2" d="M529.969,66.237a1.629,1.629,0,0,0,1.154-.478l3.552-3.553c.024-.024.047-.049.072-.072h0l1.138-1.253a.49.49,0,0,0-.2-.791l-1.57-.56c-.034-.013-.068-.025-.1-.036L534,59.489h0a1.632,1.632,0,0,0-1.634.407l-3.55,3.553a1.633,1.633,0,0,0,1.15,2.788Z" transform="translate(-490.368 -55.147)" fill="#222747"/>
    <path id="Path_3" data-name="Path 3" d="M748.636,100.36a.5.5,0,0,0,.457-.686l-.658-1.581c-.006-.017-.014-.035-.022-.052l-.015-.035h0a1.62,1.62,0,0,0-1.475-.923h-.993a6.359,6.359,0,0,0-3.7,1.158,6.5,6.5,0,0,0-2.618,6.406,6.355,6.355,0,0,0,1.829,3.419L742.9,109.5H733.13a4.651,4.651,0,0,1-4.644-4.636,4.578,4.578,0,0,1,1.366-3.259,4.687,4.687,0,0,1,3.336-1.394h2.537a.494.494,0,0,0,.456-.685l-.62-1.488a1.619,1.619,0,0,0-1.539-1.093h-.834a7.91,7.91,0,1,0-.056,15.82h15.474a.5.5,0,0,0,.456-.686l-.616-1.476a1.636,1.636,0,0,0-.4-.635l-4.312-4.235a3.072,3.072,0,0,1-.6-3.675,3.119,3.119,0,0,1,2.8-1.711h1.018l-.007.011Z" transform="translate(-673.113 -89.982)" fill="#222747"/>
    <path id="Path_4" data-name="Path 4" d="M1067.436,35.874l-.617-1.481a1.624,1.624,0,0,0-.072-.175v-.009h0a1.632,1.632,0,0,0-1.463-.908h-7.6a1.633,1.633,0,1,0,0,3.267h7.594a.972.972,0,0,0,.152-.008h1.55a.494.494,0,0,0,.456-.684Z" transform="translate(-980.152 -30.907)" fill="#222747"/>
    <path id="Path_5" data-name="Path 5" d="M309.9,353.684a1.632,1.632,0,0,0-1.548-1.114h-5.634a1.633,1.633,0,1,0,0,3.267h7.337a.494.494,0,0,0,.456-.686Z" transform="translate(-279.441 -327.231)" fill="#222747"/>
    <path id="Path_6" data-name="Path 6" d="M51.823,75.794a1.565,1.565,0,0,0-.072-.18v-.005a1.641,1.641,0,0,0-.311-.437l-6.684-6.684,6.253-6.253a1.605,1.605,0,0,0,.16-.185L52.2,60.909a.49.49,0,0,0-.195-.791l-1.5-.533a1.634,1.634,0,0,0-1.818.338l-7.411,7.41a1.634,1.634,0,0,0,0,2.31l5.051,5.051H36.531A6,6,0,0,1,30.539,68.7v-1.7a.494.494,0,0,0-.685-.456l-1.4.586A1.633,1.633,0,0,0,27.273,68.7v5.971H25.045A4.47,4.47,0,0,1,20.6,70.6c0-.132-.009-.263-.019-.393h0a1.634,1.634,0,0,0-.032-.321,7.236,7.236,0,0,0-7.133-6.358H9.958A9.955,9.955,0,0,0,0,73.483V78.1a.494.494,0,0,0,.685.457l1.666-.695H2.346a1.633,1.633,0,0,0,.921-1.47V73.483A6.7,6.7,0,0,1,6.9,67.534a7.224,7.224,0,0,0,12.2,7.618,7.718,7.718,0,0,0,5.94,2.789h3.864a1.633,1.633,0,0,0,1.633-1.633v-.546a9.189,9.189,0,0,0,5.992,2.2H51.983a.5.5,0,0,0,.456-.686Zm-38.45-1.078a3.96,3.96,0,1,1,3.942-4.335c0,.129.009.257.018.385a3.965,3.965,0,0,1-3.961,3.948Z" transform="translate(0 -55.173)" fill="#222747"/>
    <path id="Path_7" data-name="Path 7" d="M1506.048,177.529a21.939,21.939,0,0,0-5-4.286c-.583-.323-1.688,0-1.233.483,1.757,1.877,3.522,4.168,3.54,5.625-.016,1.458-1.782,3.748-3.54,5.625-.456.487.647.806,1.233.483a21.937,21.937,0,0,0,5-4.286A2.69,2.69,0,0,0,1506.048,177.529Z" transform="translate(-1391.928 -160.671)" fill="#fff"/>
    <path id="Path_8" data-name="Path 8" d="M1374.7,69.7a30.591,30.591,0,0,0,6.971,5.979c.814.45,2.354,0,1.72-.674-2.451-2.618-4.914-5.813-4.937-7.845.022-2.032,2.486-5.228,4.937-7.846.635-.678-.906-1.123-1.72-.673a30.738,30.738,0,0,0-6.971,5.978A3.753,3.753,0,0,0,1374.7,69.7Z" transform="translate(-1274.982 -54.257)" fill="#fff"/>
  </g>
</svg>
