<svg width="33" height="18" viewBox="0 0 33 18" fill="none" xmlns="http://www.w3.org/2000/svg">
<g clip-path="url(#clip0_746_1848)">
<g opacity="0.5">
<path d="M30.0228 10.8839C29.9219 10.8838 29.822 10.9034 29.7287 10.9414C29.6354 10.9794 29.5506 11.035 29.4792 11.1053C29.4078 11.1757 29.3512 11.2593 29.3125 11.3513C29.2738 11.4433 29.254 11.542 29.254 11.6416V17.2399C29.254 17.4411 29.335 17.6341 29.4792 17.7764C29.6234 17.9188 29.8189 17.9987 30.0228 17.9987C30.2268 17.9987 30.4223 17.9188 30.5665 17.7764C30.7107 17.6341 30.7917 17.4411 30.7917 17.2399V11.6416C30.7913 11.4406 30.7103 11.248 30.5662 11.1059C30.422 10.9639 30.2265 10.8839 30.0228 10.8839Z" fill="white"/>
<path d="M27.4423 12.2234C27.4806 12.2235 27.5185 12.2145 27.5524 12.1968C27.5862 12.179 27.615 12.1531 27.6363 12.1216C27.6576 12.0901 27.6707 12.0542 27.6744 12.0165C27.6781 11.9789 27.6721 11.9407 27.6573 11.9058L27.3491 11.1712L27.338 11.1482V11.1325C27.2753 11.0032 27.1768 10.8941 27.0537 10.8182C26.9306 10.7422 26.7881 10.7024 26.6429 10.7033H26.1749C25.5515 10.6993 24.9424 10.8868 24.4321 11.2402C23.9629 11.5713 23.5984 12.0273 23.3809 12.5546C23.1626 13.081 23.1 13.6575 23.2004 14.2176C23.3114 14.8231 23.6121 15.379 24.06 15.807L24.7491 16.475H20.1482C19.5693 16.4747 19.0144 16.2478 18.6046 15.8443C18.1948 15.4407 17.9636 14.8935 17.962 14.3221C17.9614 14.0403 18.0177 13.761 18.1275 13.5008C18.2374 13.2406 18.3986 13.0048 18.6019 12.8068C18.8071 12.6017 19.0515 12.4386 19.3209 12.3273C19.5903 12.216 19.8795 12.1584 20.1716 12.158H21.3668C21.4051 12.1581 21.4427 12.1488 21.4765 12.1311C21.5104 12.1133 21.5392 12.0876 21.5605 12.0562C21.5818 12.0247 21.5949 11.9885 21.5986 11.9508C21.6022 11.9132 21.5963 11.8753 21.5815 11.8404L21.2891 11.1493C21.2373 11.0002 21.1396 10.871 21.0094 10.7797C20.8792 10.6884 20.7232 10.6396 20.5635 10.6403H20.1704C19.6759 10.6396 19.1862 10.7357 18.7296 10.9229C18.273 11.1102 17.8585 11.3849 17.5101 11.7312C17.1643 12.0705 16.8899 12.4739 16.7029 12.9183C16.516 13.3628 16.4201 13.8394 16.4208 14.3206C16.4203 14.8029 16.5165 15.2806 16.7041 15.7259C16.8918 16.1712 17.1669 16.5754 17.5137 16.9151C17.8587 17.257 18.2691 17.5281 18.7209 17.7124C19.1727 17.8968 19.6569 17.9908 20.1458 17.9892H27.43C27.4686 17.9895 27.5069 17.9803 27.541 17.9625C27.5751 17.9448 27.6043 17.9189 27.6258 17.8874C27.6474 17.8558 27.6604 17.8196 27.6642 17.7817C27.668 17.7438 27.6622 17.7056 27.6474 17.6704L27.3566 16.9829C27.3176 16.8715 27.2528 16.7707 27.1674 16.6884L25.1371 14.7208C24.9068 14.5063 24.7546 14.223 24.7035 13.9146C24.6525 13.6061 24.7055 13.2896 24.8546 13.0139C24.9781 12.7738 25.1668 12.5721 25.3995 12.4315C25.6321 12.2909 25.8996 12.2168 26.1725 12.2175H26.6528L27.4423 12.2234Z" fill="white"/>
<path d="M32.9815 9.70686L32.6904 9.01814C32.6812 8.99057 32.6699 8.9639 32.6562 8.93823C32.5924 8.81162 32.4942 8.70495 32.3725 8.63042C32.2508 8.5559 32.1104 8.51659 31.9671 8.51648H28.3944C28.1905 8.51648 27.995 8.59643 27.8508 8.73875C27.7066 8.88107 27.6256 9.07407 27.6256 9.27534C27.6256 9.47661 27.7066 9.66961 27.8508 9.81193C27.995 9.95425 28.1905 10.0342 28.3944 10.0342H31.9707H32.0421H32.7716C32.8107 10.0339 32.849 10.0239 32.8832 10.0052C32.9173 9.98648 32.9462 9.95963 32.9671 9.92706C32.988 9.89448 33.0003 9.85721 33.0028 9.81873C33.0053 9.78026 32.998 9.74183 32.9815 9.70686Z" fill="white"/>
<path d="M18.6487 3.17013C18.7496 3.17012 18.8497 3.1504 18.9429 3.11212C19.036 3.07383 19.1206 3.01765 19.1917 2.94697L20.8634 1.29694C20.8745 1.28482 20.8866 1.27414 20.8964 1.26202L21.4319 0.678964C21.4569 0.651465 21.4747 0.6183 21.4838 0.582478C21.4928 0.546656 21.4927 0.50911 21.4838 0.473266C21.4748 0.437422 21.4571 0.40434 21.4322 0.376781C21.4073 0.349221 21.3761 0.328109 21.3411 0.315219L20.604 0.0568392L20.5564 0.0399691H20.5489C20.4152 0.00018347 20.2731 -0.00301408 20.1378 0.0304981C20.0024 0.0640103 19.8788 0.132959 19.78 0.230276L18.1072 1.88148C18.0356 1.95178 17.9787 2.03537 17.9399 2.12743C17.9011 2.21949 17.8811 2.31807 17.8811 2.41778C17.8811 2.51748 17.9011 2.61635 17.9399 2.70842C17.9787 2.80048 18.0356 2.88407 18.1072 2.95437C18.2519 3.09393 18.4464 3.17146 18.6487 3.17013Z" fill="white"/>
<path d="M14.3381 10.307C14.2866 10.1563 14.1883 10.0252 14.0574 9.93257C13.9265 9.8399 13.7696 9.7903 13.6085 9.7905H10.958C10.8571 9.79018 10.7571 9.80967 10.6637 9.84762C10.5704 9.88557 10.4855 9.94118 10.4141 10.0116C10.3427 10.082 10.286 10.1658 10.2474 10.2578C10.2088 10.3499 10.189 10.4485 10.1892 10.5482C10.189 10.6479 10.2088 10.7467 10.2474 10.8388C10.286 10.931 10.3425 11.0146 10.4139 11.0851C10.4854 11.1556 10.5702 11.2115 10.6636 11.2496C10.7569 11.2877 10.857 11.3072 10.958 11.307H14.4127C14.4509 11.3069 14.4885 11.2974 14.5222 11.2795C14.5558 11.2617 14.5846 11.236 14.6058 11.2046C14.6271 11.1733 14.6401 11.1374 14.6439 11.0999C14.6477 11.0623 14.6422 11.0244 14.6277 10.9895L14.3381 10.307Z" fill="white"/>
<path d="M24.4039 7.59995C24.3936 7.57107 24.3818 7.54266 24.3684 7.51501C24.3309 7.43961 24.2811 7.37084 24.221 7.31139L21.0744 4.20432L24.0221 1.29495C24.0491 1.26809 24.0741 1.23927 24.0969 1.20882L24.5882 0.679042C24.6139 0.651318 24.6324 0.617784 24.6419 0.581373C24.6514 0.544961 24.6516 0.506922 24.6426 0.470385C24.6336 0.433848 24.6156 0.399898 24.5903 0.371827C24.5649 0.343757 24.5331 0.322381 24.4973 0.309378L23.7936 0.0669805C23.6511 0.00395074 23.4926 -0.0151107 23.339 0.0128183C23.1855 0.0407474 23.0443 0.114234 22.9339 0.223252L19.4446 3.66861C19.3731 3.739 19.3164 3.82251 19.2777 3.91456C19.239 4.00661 19.2191 4.10525 19.2191 4.20491C19.2191 4.30457 19.239 4.4032 19.2777 4.49525C19.3164 4.5873 19.3731 4.67112 19.4446 4.7415L21.8236 7.08852H17.2068C16.8358 7.08852 16.4686 7.01614 16.1259 6.87602C15.7831 6.73589 15.4717 6.53056 15.2094 6.27165C14.9471 6.01274 14.739 5.70546 14.5971 5.36717C14.4551 5.02889 14.3821 4.66637 14.3821 4.30021V3.51323C14.3822 3.47526 14.3727 3.43784 14.3546 3.40431C14.3366 3.37079 14.3105 3.34227 14.2785 3.32115C14.2465 3.30003 14.2097 3.28726 14.1714 3.28356C14.1332 3.27986 14.0945 3.28554 14.059 3.30013L13.3971 3.57272C13.2374 3.6184 13.097 3.71414 12.9971 3.84531C12.8972 3.97648 12.8432 4.13611 12.8431 4.30021V7.07639H11.793C11.2689 7.07395 10.7645 6.8785 10.3783 6.52855C9.99225 6.17861 9.75225 5.69928 9.70519 5.18397C9.70519 5.12335 9.70509 5.06256 9.69649 5.00195C9.69629 4.95184 9.69101 4.90212 9.6806 4.85308C9.58081 4.04173 9.18477 3.29406 8.56666 2.75023C7.94855 2.20639 7.15075 1.90368 6.32274 1.89873H4.69531C4.07932 1.89682 3.46917 2.01553 2.89997 2.24797C2.33076 2.4804 1.81387 2.82187 1.37928 3.25278C0.942449 3.6816 0.596094 4.19178 0.360396 4.75363C0.124697 5.31548 0.00428741 5.91778 0.00612422 6.52589V8.67047C0.00600603 8.70844 0.0154905 8.74587 0.0335604 8.77939C0.0516303 8.81291 0.0777515 8.84144 0.109722 8.86255C0.141693 8.88367 0.178483 8.89673 0.216768 8.90044C0.255053 8.90414 0.293695 8.89845 0.329211 8.88386L1.11407 8.56126C1.24395 8.49913 1.35344 8.40227 1.43011 8.28157C1.50678 8.16087 1.54742 8.02122 1.5475 7.87876V6.52707C1.54802 5.9554 1.70815 5.39503 2.01016 4.90724C2.31218 4.41945 2.74447 4.02307 3.25964 3.76184C3.02351 4.22649 2.90071 4.73932 2.90102 5.25914C2.90199 6.14957 3.2607 7.00307 3.89846 7.63281C4.53623 8.26254 5.40101 8.6171 6.3031 8.61838C6.82563 8.61902 7.34121 8.50052 7.80984 8.27239C8.27848 8.04426 8.68748 7.71269 9.00504 7.3031C9.34622 7.70851 9.77373 8.03451 10.2571 8.25848C10.7404 8.48246 11.2676 8.59872 11.8016 8.59885H13.6206C13.8243 8.59885 14.0196 8.51922 14.1638 8.37717C14.3079 8.23511 14.3891 8.04223 14.3894 7.84117V7.58782C15.1774 8.24993 16.1793 8.61204 17.2142 8.60861H24.4912C24.5294 8.60833 24.567 8.59879 24.6006 8.58079C24.6343 8.56279 24.663 8.53682 24.6841 8.50532C24.7053 8.47382 24.7181 8.43785 24.7218 8.40025C24.7254 8.36266 24.7195 8.32472 24.7048 8.28986L24.4039 7.59995ZM6.29935 7.09681C5.80478 7.09649 5.33052 6.90227 4.98092 6.55696C4.63131 6.21166 4.43504 5.74347 4.43504 5.2553C4.43569 4.76754 4.63228 4.30019 4.98182 3.95541C5.33135 3.61062 5.8052 3.41677 6.29935 3.41645C6.76309 3.41677 7.21008 3.58738 7.55317 3.89532C7.89627 4.20327 8.11085 4.62651 8.15512 5.08216C8.15512 5.14035 8.15522 5.20335 8.16381 5.26033C8.16251 5.74852 7.96513 6.21606 7.61494 6.56081C7.26475 6.90556 6.79035 7.09918 6.29576 7.09918L6.29935 7.09681Z" fill="white"/>
</g>
</g>
<defs>
<clipPath id="clip0_746_1848">
<rect width="33" height="18" fill="white"/>
</clipPath>
</defs>
</svg>
